<svg xmlns="http://www.w3.org/2000/svg" viewBox="0 0 1440 220" preserveAspectRatio="xMidYMid slice">
  <defs>
    <linearGradient id="bg" x1="0" y1="0" x2="1" y2="1">
      <stop offset="0%" stop-color="#1a0011"/>
      <stop offset="50%" stop-color="#2d0028"/>
      <stop offset="100%" stop-color="#0d0d0d"/>
    </linearGradient>
    <radialGradient id="glow1" cx="20%" cy="40%" r="40%">
      <stop offset="0%" stop-color="#E6007A" stop-opacity="0.25"/>
      <stop offset="100%" stop-color="transparent" stop-opacity="0"/>
    </radialGradient>
    <radialGradient id="glow2" cx="75%" cy="60%" r="35%">
      <stop offset="0%" stop-color="#6D3AEE" stop-opacity="0.18"/>
      <stop offset="100%" stop-color="transparent" stop-opacity="0"/>
    </radialGradient>
    <radialGradient id="glow3" cx="90%" cy="20%" r="25%">
      <stop offset="0%" stop-color="#E6007A" stop-opacity="0.12"/>
      <stop offset="100%" stop-color="transparent" stop-opacity="0"/>
    </radialGradient>
  </defs>
  <rect width="1440" height="220" fill="url(#bg)"/>
  <rect width="1440" height="220" fill="url(#glow1)"/>
  <rect width="1440" height="220" fill="url(#glow2)"/>
  <rect width="1440" height="220" fill="url(#glow3)"/>
  <!-- Polkadot-inspired dots pattern -->
  <g opacity="0.08" fill="#E6007A">
    <circle cx="120" cy="60" r="18"/>
    <circle cx="120" cy="110" r="12"/>
    <circle cx="120" cy="155" r="8"/>
    <circle cx="200" cy="85" r="10"/>
    <circle cx="200" cy="135" r="14"/>
    <circle cx="320" cy="50" r="6"/>
    <circle cx="380" cy="90" r="20"/>
    <circle cx="380" cy="150" r="10"/>
    <circle cx="500" cy="70" r="12"/>
    <circle cx="560" cy="120" r="16"/>
    <circle cx="700" cy="55" r="8"/>
    <circle cx="750" cy="100" r="22"/>
    <circle cx="750" cy="170" r="10"/>
    <circle cx="900" cy="80" r="14"/>
    <circle cx="960" cy="130" r="8"/>
    <circle cx="1050" cy="60" r="18"/>
    <circle cx="1050" cy="140" r="12"/>
    <circle cx="1180" cy="90" r="10"/>
    <circle cx="1250" cy="50" r="6"/>
    <circle cx="1320" cy="110" r="16"/>
    <circle cx="1400" cy="70" r="12"/>
  </g>
  <!-- Connecting lines -->
  <g opacity="0.04" stroke="#E6007A" stroke-width="1" fill="none">
    <line x1="120" y1="60" x2="200" y2="85"/>
    <line x1="200" y1="85" x2="320" y2="50"/>
    <line x1="320" y1="50" x2="380" y2="90"/>
    <line x1="380" y1="90" x2="500" y2="70"/>
    <line x1="500" y1="70" x2="560" y2="120"/>
    <line x1="560" y1="120" x2="700" y2="55"/>
    <line x1="700" y1="55" x2="750" y2="100"/>
    <line x1="750" y1="100" x2="900" y2="80"/>
    <line x1="900" y1="80" x2="960" y2="130"/>
    <line x1="960" y1="130" x2="1050" y2="60"/>
    <line x1="1050" y1="60" x2="1180" y2="90"/>
    <line x1="1180" y1="90" x2="1320" y2="110"/>
  </g>
</svg>
